<svg xmlns="http://www.w3.org/2000/svg" width="512" height="512" viewBox="0 0 512 512">
  <defs>
    <linearGradient id="felt" x1="0" y1="0" x2="0" y2="1">
      <stop offset="0" stop-color="#12251a" />
      <stop offset="1" stop-color="#0a0f0c" />
    </linearGradient>
  </defs>
  <rect width="512" height="512" rx="96" fill="url(#felt)" />
  <rect x="26" y="26" width="460" height="460" rx="74" fill="none" stroke="#e7b24a" stroke-width="10" opacity="0.85" />
  <!-- Tilted card -->
  <g transform="rotate(-8 256 256)">
    <rect x="150" y="120" width="212" height="272" rx="26" fill="#f3ecd8" stroke="#e6dcbf" stroke-width="4" />
    <!-- Spade -->
    <path d="M256 168c0 0-70 52-70 100a37 37 0 0 0 58 30c-3 15-11 28-26 36v8h76v-8c-15-8-23-21-26-36a37 37 0 0 0 58-30c0-48-70-100-70-100z" fill="#12251a" />
    <text x="176" y="180" font-family="Georgia, 'Times New Roman', serif" font-size="46" font-weight="700" fill="#12251a">A</text>
  </g>
</svg>
