<svg xmlns="http://www.w3.org/2000/svg" width="512" height="512" viewBox="0 0 512 512">
  <defs>
    <linearGradient id="feltm" x1="0" y1="0" x2="0" y2="1">
      <stop offset="0" stop-color="#12251a" />
      <stop offset="1" stop-color="#0a0f0c" />
    </linearGradient>
  </defs>
  <!-- Full-bleed background for the maskable safe zone. -->
  <rect width="512" height="512" fill="url(#feltm)" />
  <!-- Mark kept within the central 80% safe area. -->
  <g transform="translate(256 256) scale(0.66) translate(-256 -256)">
    <g transform="rotate(-8 256 256)">
      <rect x="150" y="120" width="212" height="272" rx="26" fill="#f3ecd8" stroke="#e6dcbf" stroke-width="4" />
      <path d="M256 168c0 0-70 52-70 100a37 37 0 0 0 58 30c-3 15-11 28-26 36v8h76v-8c-15-8-23-21-26-36a37 37 0 0 0 58-30c0-48-70-100-70-100z" fill="#12251a" />
    </g>
  </g>
</svg>
